<?xml version="1.0" encoding="utf-8"?>
<!-- Generator: Adobe Illustrator 27.8.1, SVG Export Plug-In . SVG Version: 6.00 Build 0)  -->
<svg version="1.1"
	 id="Layer_1" xmlns:cc="http://creativecommons.org/ns#" xmlns:sodipodi="http://sodipodi.sourceforge.net/DTD/sodipodi-0.dtd" xmlns:dc="http://purl.org/dc/elements/1.1/" xmlns:svg="http://www.w3.org/2000/svg" xmlns:rdf="http://www.w3.org/1999/02/22-rdf-syntax-ns#" xmlns:inkscape="http://www.inkscape.org/namespaces/inkscape"
	 xmlns="http://www.w3.org/2000/svg" xmlns:xlink="http://www.w3.org/1999/xlink" x="0px" y="0px" viewBox="0 0 98.8 55.6"
	 style="enable-background:new 0 0 98.8 55.6;" xml:space="preserve">
<style type="text/css">
	.st0{fill:#FFFFFF;}
</style>
<sodipodi:namedview  bordercolor="#666666" borderopacity="1" gridtolerance="1" guidetolerance="1" id="namedview4" inkscape:current-layer="Layer_1" inkscape:cx="47.989655" inkscape:cy="19.480499" inkscape:pageopacity="0" inkscape:pageshadow="2" inkscape:showpageshadow="false" inkscape:window-height="1057" inkscape:window-maximized="1" inkscape:window-width="1920" inkscape:window-x="-8" inkscape:window-y="1072" inkscape:zoom="1" objecttolerance="1" pagecolor="#ffffff" showgrid="false">
	<inkscape:grid  id="grid4166" originx="-0.84046068" originy="-0.746877" type="xygrid"></inkscape:grid>
</sodipodi:namedview>
<g id="layer103-2" transform="matrix(0.79031136,0,0,1.094549,-7914.4634,-859.7916)">
</g>
<g id="_x23_f1f0f0ff" transform="matrix(0.14420966,0,0,0.14420966,-18.095421,-49.188428)">
</g>
<path id="path823" inkscape:connector-curvature="0" class="st0" d="M46.6,0h-5.4c-3.9,0.2-6.8,1.6-9.1,3.5
	c-1.7,1.4-3.2,3.2-4.5,5.1l-1.2,1.8h47.2c2.8-0.1,4.9-0.7,6.8-1.7c3.1-1.7,5.4-4.2,7.3-7L88.8,0C88.3,0,46.6,0,46.6,0z M11.7,12.4
	l-0.3,0.2c0,0.1,0.1,0.2,0.3,0.2l28.2,4.6l-6.7,10L43.5,26l9-13.5L11.7,12.4z M53.3,12.4L53.3,12.4L53.3,12.4c0.5,0.3,1.2,1-0.2,3.2
	l-6.6,9.9L56.6,24l7.7-11.5L53.3,12.4z M65.1,12.4L65.1,12.4L65.1,12.4c0.5,0.3,1.2,1-0.2,3.2l-5.2,7.9l0,0l6.9-1
	c0.7-0.1,1.4-0.3,2-0.6c1.9-1.1,3.2-2.6,4.4-4.4l3.3-5L65.1,12.4z M23,16.8L10.6,35.4L27,32.9l9.1-13.7L23,16.8z M25.6,39.9
	c-0.2,0-0.3,0-0.5,0c-4.1,0.1-8.4,2.6-8.4,8c0,2.7,1.1,4.1,1.5,4.7c0.6,0.8,2.4,3.1,7.1,3.1c5.7,0,8.7-3.5,8.7-7.8
	C34.1,43,30.2,40,25.6,39.9z M40.1,40.4v14.7h3.3v-5.3H48l3.8,5.3h3.9l-4-5.5c0.8-0.2,1.6-0.6,2.2-1.4c0.7-0.9,1.1-2,1.1-2.8
	c0-0.2,0-0.3,0-0.6c0-0.8-0.4-2-1.1-2.8c-1.2-1.4-2.7-1.6-4.4-1.6H40.1z M62.1,40.4v2.9h9.2l-9.9,9.2v2.6h14.7v-2.9h-10l10-9.3v-2.5
	H62.1z M0,40.4v14.7h3v-5.4h5.9l1.5-2.8H3v-3.6h9.2l1.5-2.9L0,40.4z M88.2,40.4l-6.9,14.7h3.6l1.2-2.5h8l1.1,2.5h3.6l-7-14.7H88.2z
	 M25.5,42.8c2.9,0,5.3,1.9,5.3,5c0,2.7-1.9,4.9-5.5,4.9c-3,0-4.1-1.4-4.5-1.9c-0.3-0.3-1-1.2-1-2.9c0-3.4,2.7-4.9,5.3-5
	C25.3,42.8,25.4,42.8,25.5,42.8z M43.3,43.3H49c1.4,0,2.1,0.4,2.3,0.7c0.2,0.3,0.4,0.8,0.4,1.1v0.1l0,0.1c0,0.1,0,0.3-0.1,0.3l0,0.1
	c-0.2,0.6-0.7,0.8-1.2,1c-0.3,0.1-0.8,0.1-1.3,0.2h-5.8L43.3,43.3z M90,44l2.7,5.7h-5.4L90,44z"/>
</svg>
