<?xml version="1.0" encoding="UTF-8"?>
<svg id="Calque_2" data-name="Calque 2" xmlns="http://www.w3.org/2000/svg" viewBox="0 0 98.79 55.62">
  <defs>
    <style>
      .cls-1 {
        fill: #fff;
        stroke-width: 0px;
      }
    </style>
  </defs>
  <g id="Layer_1" data-name="Layer 1">
    <path id="path823" class="cls-1" d="m46.6,0h-5.36c-3.92.18-6.79,1.6-9.11,3.49-1.75,1.44-3.22,3.2-4.54,5.07l-1.18,1.77h47.16c2.77-.12,4.87-.69,6.79-1.75,3.1-1.69,5.38-4.17,7.32-6.99l1.06-1.59c-.47,0-42.15,0-42.15,0ZM11.73,12.44l-.33.23c0,.12.08.21.33.24l28.22,4.62-6.66,10,10.21-1.56,9-13.54H11.73Zm41.54,0l-.04.06.05.04c.46.22,1.22.92-.22,3.08l-6.6,9.9,10.18-1.56,7.66-11.52h-11.04Zm11.81,0l-.02.06.05.04c.46.22,1.22.92-.23,3.08l-5.21,7.85-.04.04,6.86-1.05c.72-.13,1.38-.33,1.95-.64,1.92-1.06,3.21-2.64,4.39-4.42l3.29-4.96h-11.05Zm-42.09,4.39l-12.34,18.55,16.41-2.51,9.14-13.74-13.21-2.3Zm2.62,23.09h-.46c-4.05.13-8.38,2.58-8.38,7.97,0,2.7,1.1,4.13,1.54,4.66.59.76,2.38,3.06,7.08,3.06,5.67,0,8.7-3.53,8.7-7.82,0-4.83-3.84-7.84-8.48-7.88Zm14.45.48v14.67h3.26v-5.33h4.73l3.79,5.33h3.91l-4.01-5.51c.82-.19,1.58-.59,2.24-1.36.75-.87,1.11-1.98,1.11-2.82.01-.17,0-.35,0-.59,0-.84-.36-1.95-1.11-2.82-1.22-1.41-2.74-1.56-4.4-1.56h-9.52Zm22.07,0v2.87h9.19l-9.93,9.19v2.61h14.74v-2.87h-10l10-9.27v-2.53h-14.01Zm-62.12,0v14.67h3.04v-5.36h5.85l1.46-2.84H3.04v-3.6h9.17l1.5-2.88H0Zm88.15,0l-6.92,14.67h3.58l1.17-2.49h8.05l1.12,2.49h3.64l-6.99-14.67h-3.66Zm-62.63,2.42c2.92.02,5.33,1.93,5.33,4.96,0,2.69-1.89,4.91-5.47,4.91-2.96,0-4.08-1.45-4.45-1.92-.28-.34-.97-1.23-.97-2.93,0-3.39,2.71-4.93,5.27-5.02.08,0,.18,0,.28,0Zm17.78.45h5.69c1.45,0,2.05.36,2.33.71.24.35.37.84.37,1.13v.21c-.02.1-.04.25-.07.34l-.02.07c-.19.55-.66.83-1.16.99-.34.08-.77.14-1.34.16h-5.8v-3.61Zm46.68.77l2.74,5.67h-5.39l2.65-5.67Z"/>
  </g>
</svg>