<?xml version="1.0" encoding="UTF-8"?><svg id="Calque_2" xmlns="http://www.w3.org/2000/svg" viewBox="0 0 648.32 97"><defs><style>.cls-1{stroke-width:0px;}</style></defs><g id="Calque_1-2"><g id="Calque_1-2"><path class="cls-1" d="m81.07,0h-1.44c-12.75.42-26.37,8.12-26.37,25.08,0,8.5,3.45,12.98,4.85,14.65,1.86,2.39,7.48,9.64,22.28,9.64,17.84,0,27.36-11.12,27.36-24.59C107.75,9.6,95.68.11,81.07,0Zm-.64,40.05c-9.3,0-12.83-4.56-14-6.04-.88-1.06-3.04-3.87-3.04-9.22,0-10.66,8.54-15.52,16.58-15.79h.88c9.18.08,16.77,6.08,16.77,15.6,0,8.46-5.96,15.45-17.19,15.45Z"/><path class="cls-1" d="m163.63,30.71c2.57-.61,4.95-1.85,7.04-4.28,2.34-2.72,3.48-6.2,3.48-8.85.04-.53,0-1.1,0-1.85,0-2.64-1.14-6.13-3.48-8.85-3.83-4.43-8.59-4.88-13.81-4.88h-29.86v46h10v-17h14.52l11.62,17h13.05s-12.56-17.29-12.56-17.29Zm-.63-13.72l-.04.26c-.03.29-.07.78-.18,1.03l-.08.22c-.6,1.7-2.06,2.54-3.58,3.01-1.05.26-2.39.45-4.15.48h-17.97v-11h17.63c4.49,0,6.35,1.1,7.22,2.17.75,1.07,1.15,2.57,1.15,3.45v.37h0Z"/><polygon class="cls-1" points="196 2 196 11 224.98 11 194 39.83 194 48 240 48 240 39 208.58 39 240 9.95 240 2 196 2"/><polygon class="cls-1" points="0 2 0 48 10 48 10 31 28.6 31 33.23 22 10 22 10 11 40.17 11 45.09 2 0 2"/><path class="cls-1" d="m289.31,2h-11.47l-21.71,46h10.81l3.76-8h25.89l3.61,8h11l-21.9-46Zm-14.06,29l8.35-17.83,8.62,17.83h-16.97Z"/><path class="cls-1" d="m18.91,96.28c-3.67,0-6.85-.78-9.54-2.34-2.69-1.56-4.76-3.72-6.24-6.47-1.47-2.75-2.21-5.92-2.21-9.48,0-2.67.44-5.12,1.33-7.35.88-2.23,2.12-4.17,3.72-5.82,1.59-1.65,3.49-2.91,5.69-3.79s4.62-1.33,7.25-1.33c4.16,0,7.57.9,10.24,2.7s4.71,4.37,6.13,7.69l-6.91,2.65c-1.14-1.98-2.49-3.42-4.03-4.34-1.54-.92-3.35-1.38-5.43-1.38s-3.73.46-5.27,1.38c-1.54.92-2.75,2.19-3.64,3.82-.88,1.63-1.33,3.55-1.33,5.77s.44,4.1,1.33,5.74c.88,1.65,2.1,2.92,3.64,3.82,1.54.9,3.3,1.35,5.27,1.35,2.08,0,3.89-.45,5.43-1.35,1.54-.9,2.88-2.34,4.03-4.31l6.91,2.65c-1.42,3.33-3.47,5.89-6.13,7.69-2.67,1.8-6.08,2.7-10.24,2.7Z"/><path class="cls-1" d="m37.1,77.99c0-2.67.44-5.12,1.33-7.35.88-2.23,2.14-4.17,3.77-5.82s3.55-2.92,5.77-3.82,4.68-1.35,7.38-1.35,5.07.45,7.3,1.35c2.23.9,4.17,2.17,5.79,3.82,1.63,1.65,2.88,3.59,3.77,5.82.88,2.23,1.33,4.69,1.33,7.35s-.44,5.12-1.33,7.35c-.88,2.23-2.14,4.18-3.77,5.82-1.63,1.65-3.56,2.91-5.79,3.79-2.23.88-4.67,1.32-7.3,1.32s-5.16-.44-7.38-1.32-4.14-2.15-5.77-3.79c-1.63-1.65-2.88-3.59-3.77-5.82-.88-2.23-1.33-4.69-1.33-7.35Zm7.9,0c0,2.18.45,4.09,1.35,5.72.9,1.63,2.14,2.89,3.72,3.79s3.39,1.35,5.43,1.35,3.8-.45,5.38-1.35,2.81-2.16,3.72-3.79c.9-1.63,1.35-3.55,1.35-5.77s-.45-4.09-1.35-5.72c-.9-1.63-2.14-2.88-3.72-3.77-1.58-.88-3.37-1.33-5.38-1.33s-3.85.45-5.43,1.35-2.82,2.16-3.72,3.77c-.9,1.61-1.35,3.53-1.35,5.74h0Z"/><path class="cls-1" d="m75.69,95.01l6.17-35.01h6.92l8.39,24h-.36l8.39-24h6.92l6.22,35h-7.63l-2.4-15.57c-.31-2.08-.59-4.16-.85-6.22-.26-2.07-.47-4.14-.64-6.22h2.1c-.55,2.29-1.1,4.44-1.64,6.44-.54,2.01-1.17,4.04-1.9,6.08l-5.4,15.48h-5.98l-5.4-15.48c-.73-2.08-1.36-4.11-1.9-6.11-.54-1.99-1.08-4.13-1.64-6.42h2.1c-.17,2.08-.37,4.16-.61,6.22-.24,2.07-.53,4.14-.87,6.22l-2.4,15.57h-7.6Z"/><path class="cls-1" d="m120.54,95.01l6.17-35.01h6.92l8.39,24h-.36l8.39-24h6.92l6.22,35h-7.63l-2.4-15.57c-.31-2.08-.59-4.16-.85-6.22-.26-2.07-.47-4.14-.64-6.22h2.1c-.55,2.29-1.1,4.44-1.64,6.44-.54,2.01-1.17,4.04-1.9,6.08l-5.4,15.48h-5.98l-5.4-15.48c-.73-2.08-1.36-4.11-1.9-6.11-.54-1.99-1.08-4.13-1.64-6.42h2.1c-.17,2.08-.37,4.16-.61,6.22-.24,2.07-.53,4.14-.87,6.22l-2.4,15.57h-7.6Z"/><path class="cls-1" d="m181.49,96c-3.14,0-5.78-.57-7.92-1.71-2.14-1.14-3.78-2.85-4.89-5.12-1.12-2.27-1.67-5.1-1.67-8.5v-20.67h8s0,20.84,0,20.84c0,2.46.6,4.37,1.8,5.74,1.2,1.37,2.94,2.05,5.23,2.05s4.02-.68,5.2-2.05,1.77-3.28,1.77-5.74v-20.84h7v20.67c0,3.4-.55,6.23-1.67,8.5s-2.75,3.98-4.89,5.12-4.79,1.71-7.92,1.71h-.02Z"/><path class="cls-1" d="m226.13,95l-19.41-25.96,3.27-.87v26.83h-8s0-35,0-35h6.92l18.99,25.5-2.91.51v-26.01h8s0,35,0,35c0,0-6.87,0-6.87,0Z"/><path class="cls-1" d="m247,95h-8v-35h8v35Z"/><path class="cls-1" d="m250,67v-7h29v7h-29Zm10,29v-32h8v32h-8Z"/><path class="cls-1" d="m296.87,79h-3.68l9.58-19h8.94s-13.26,23.95-13.26,23.95l.55-4.32v15.37h-8v-14.67l.53,4.48-12.83-24.81h8.62l9.53,19h.02Z"/><path class="cls-1" d="m369,96.28c-9.64,0-17.98-2.05-25.02-6.14-7.05-4.09-12.5-9.75-16.36-16.98-3.87-7.23-5.8-15.52-5.8-24.89,0-7,1.16-13.43,3.48-19.3,2.32-5.86,5.57-10.95,9.75-15.27s9.16-7.64,14.93-9.95c5.77-2.32,12.11-3.48,19.02-3.48,10.91,0,19.86,2.36,26.86,7.09,7,4.73,12.36,11.45,16.09,20.18l-18.14,6.95c-3-5.18-6.52-8.98-10.57-11.39-4.05-2.41-8.8-3.61-14.25-3.61s-9.8,1.21-13.84,3.61c-4.05,2.41-7.23,5.75-9.55,10.02-2.32,4.27-3.48,9.32-3.48,15.14s1.16,10.75,3.48,15.07c2.32,4.32,5.5,7.66,9.55,10.02,4.04,2.36,8.66,3.55,13.84,3.55,5.45,0,10.2-1.18,14.25-3.55,4.04-2.36,7.57-6.14,10.57-11.32l18.14,6.95c-3.73,8.73-9.09,15.46-16.09,20.18-7,4.73-15.95,7.09-26.86,7.09v.03Z"/><path class="cls-1" d="m479,95h-57V2h20v81.41l-5.11-7.41h42.11v19.01h0Z"/><path class="cls-1" d="m526.99,97c-8.23,0-15.16-1.51-20.78-4.52s-9.9-7.52-12.82-13.5c-2.93-5.98-4.39-13.45-4.39-22.42V2h20v54.68c0,6.46,1.54,11.48,4.62,15.07,3.07,3.59,7.56,5.39,13.45,5.39s10.34-1.79,13.38-5.39c3.03-3.59,4.55-8.61,4.55-15.07V2h20v54.56c0,8.96-1.47,16.43-4.39,22.42-2.93,5.99-7.2,10.49-12.82,13.5s-12.55,4.52-20.78,4.52h-.02Z"/><path class="cls-1" d="m581,94.99V2h33.32c7.65,0,13.79.95,18.44,2.86,4.65,1.91,8.03,4.76,10.17,8.53,2.13,3.78,3.2,8.49,3.2,14.13,0,4.47-.98,8.4-2.93,11.82-1.96,3.41-4.63,6.08-7.99,7.99s-7.19,2.86-11.47,2.86l.41-4.37c5.37,0,9.83,1,13.38,3,3.55,2,6.24,4.74,8.06,8.19,1.82,3.46,2.73,7.37,2.73,11.75,0,8.74-2.66,15.29-7.99,19.67-5.33,4.37-13.18,6.56-23.55,6.56h-35.78,0Zm20-82.87v70.59l-7.01-7.71h22.38c3.51,0,6.27-.84,8.3-2.52,2.03-1.69,3.04-3.99,3.04-6.91,0-3.19-.97-5.59-2.9-7.17-1.94-1.6-4.65-2.39-8.16-2.39h-22.65v-17h20.62c3.6,0,6.29-.73,8.09-2.18s2.7-3.73,2.7-6.82c0-2.82-.92-5.02-2.77-6.61-1.84-1.59-4.52-2.39-8.02-2.39h-20.09l6.48-8.86v-.02Z"/></g></g></svg>