<?xml version="1.0" encoding="UTF-8"?><svg id="Calque_2" xmlns="http://www.w3.org/2000/svg" viewBox="0 0 647.4 96"><defs><style>.cls-1{fill:#fff;stroke-width:0px;}</style></defs><g id="Calque_1-2"><path class="cls-1" d="m80.52,0h-1.44c-12.75.42-26.37,8.12-26.37,25.08,0,8.5,3.45,12.98,4.85,14.65,1.86,2.39,7.48,9.64,22.28,9.64,17.84,0,27.36-11.12,27.36-24.59,0-15.18-12.07-24.67-26.68-24.78Zm-.64,40.19c-9.3,0-12.83-4.56-14-6.04-.88-1.06-3.04-3.87-3.04-9.22,0-10.66,8.54-15.52,16.58-15.79h.88c9.18.08,16.77,6.08,16.77,15.6,0,8.46-5.96,15.45-17.19,15.45Z"/><path class="cls-1" d="m162.72,30.32c2.58-.61,4.97-1.86,7.06-4.29,2.35-2.73,3.49-6.22,3.49-8.88.04-.53,0-1.1,0-1.86,0-2.65-1.14-6.15-3.49-8.88-3.84-4.44-8.62-4.89-13.85-4.89h-29.95s0,46.14,0,46.14h10.25s0-16.77,0-16.77h14.88s11.91,16.77,11.91,16.77h12.3s-12.6-17.34-12.6-17.34Zm-.08-13.59l-.04.27c-.03.3-.07.8-.18,1.06l-.08.23c-.61,1.75-2.09,2.62-3.64,3.11-1.07.27-2.43.46-4.22.5h-18.25s0-11.35,0-11.35h17.91c4.56,0,6.45,1.14,7.33,2.24.76,1.1,1.17,2.65,1.17,3.56v.38Z"/><polygon class="cls-1" points="195.39 1.52 195.39 10.55 224.31 10.55 193.08 39.47 193.08 47.66 239.45 47.66 239.45 38.63 207.99 38.63 239.45 9.49 239.45 1.52 195.39 1.52"/><polygon class="cls-1" points="0 1.52 0 47.66 9.56 47.66 9.56 30.81 27.97 30.81 32.56 21.9 9.56 21.9 9.56 10.59 38.4 10.59 43.11 1.52 0 1.52"/><path class="cls-1" d="m288.78,1.52h-11.5s-21.78,46.14-21.78,46.14h11.27s3.68-7.82,3.68-7.82h25.31s3.53,7.82,3.53,7.82h11.46S288.78,1.52,288.78,1.52Zm-14.08,29.29l8.35-17.83,8.62,17.83h-16.97Z"/><path class="cls-1" d="m18.36,96c-3.67,0-6.85-.78-9.54-2.34-2.69-1.56-4.76-3.72-6.24-6.47-1.47-2.75-2.21-5.92-2.21-9.48,0-2.67.44-5.12,1.33-7.35.88-2.23,2.12-4.17,3.72-5.82,1.59-1.65,3.49-2.91,5.69-3.79,2.2-.88,4.62-1.33,7.25-1.33,4.16,0,7.57.9,10.24,2.7,2.67,1.8,4.71,4.37,6.13,7.69l-6.91,2.65c-1.14-1.98-2.49-3.42-4.03-4.34-1.54-.92-3.35-1.38-5.43-1.38s-3.73.46-5.27,1.38c-1.54.92-2.75,2.19-3.64,3.82-.88,1.63-1.33,3.55-1.33,5.77s.44,4.1,1.33,5.74c.88,1.65,2.1,2.92,3.64,3.82,1.54.9,3.3,1.35,5.27,1.35,2.08,0,3.89-.45,5.43-1.35,1.54-.9,2.88-2.34,4.03-4.31l6.91,2.65c-1.42,3.33-3.47,5.89-6.13,7.69-2.67,1.8-6.08,2.7-10.24,2.7Z"/><path class="cls-1" d="m36.55,77.71c0-2.67.44-5.12,1.33-7.35.88-2.23,2.14-4.17,3.77-5.82,1.63-1.65,3.55-2.92,5.77-3.82,2.22-.9,4.68-1.35,7.38-1.35s5.07.45,7.3,1.35c2.23.9,4.17,2.17,5.79,3.82,1.63,1.65,2.88,3.59,3.77,5.82.88,2.23,1.33,4.69,1.33,7.35s-.44,5.12-1.33,7.35c-.88,2.23-2.14,4.18-3.77,5.82-1.63,1.65-3.56,2.91-5.79,3.79-2.23.88-4.67,1.32-7.3,1.32s-5.16-.44-7.38-1.32c-2.22-.88-4.14-2.15-5.77-3.79-1.63-1.65-2.88-3.59-3.77-5.82-.88-2.23-1.33-4.69-1.33-7.35Zm7.74,0c0,2.18.45,4.09,1.35,5.72.9,1.63,2.14,2.89,3.72,3.79,1.58.9,3.39,1.35,5.43,1.35s3.8-.45,5.38-1.35c1.58-.9,2.81-2.16,3.72-3.79.9-1.63,1.35-3.55,1.35-5.77s-.45-4.09-1.35-5.72c-.9-1.63-2.14-2.88-3.72-3.77-1.58-.88-3.37-1.33-5.38-1.33s-3.85.45-5.43,1.35c-1.58.9-2.82,2.16-3.72,3.77-.9,1.61-1.35,3.53-1.35,5.74Z"/><path class="cls-1" d="m75.11,95.38l6.24-35.39h6.81l8.47,24.22h-.36l8.47-24.22h6.81l6.29,35.39h-7.64l-2.44-15.8c-.31-2.11-.6-4.22-.86-6.31-.26-2.1-.48-4.2-.65-6.31h2.13c-.55,2.29-1.1,4.44-1.64,6.44-.54,2.01-1.17,4.04-1.9,6.08l-5.4,15.49h-5.98l-5.4-15.49c-.73-2.08-1.36-4.11-1.9-6.11-.54-1.99-1.08-4.13-1.64-6.42h2.13c-.17,2.11-.38,4.22-.62,6.31-.24,2.1-.54,4.2-.88,6.31l-2.44,15.8h-7.59Z"/><path class="cls-1" d="m119.96,95.38l6.24-35.39h6.81l8.47,24.22h-.36l8.47-24.22h6.81l6.29,35.39h-7.64l-2.44-15.8c-.31-2.11-.6-4.22-.86-6.31-.26-2.1-.48-4.2-.65-6.31h2.13c-.55,2.29-1.1,4.44-1.64,6.44-.54,2.01-1.17,4.04-1.9,6.08l-5.4,15.49h-5.98l-5.4-15.49c-.73-2.08-1.36-4.11-1.9-6.11-.54-1.99-1.08-4.13-1.64-6.42h2.13c-.17,2.11-.38,4.22-.62,6.31-.24,2.1-.54,4.2-.88,6.31l-2.44,15.8h-7.59Z"/><path class="cls-1" d="m181.08,96c-3.12,0-5.74-.57-7.87-1.71-2.13-1.14-3.75-2.85-4.86-5.12-1.11-2.27-1.66-5.1-1.66-8.5v-20.68h7.59v20.84c0,2.46.58,4.37,1.74,5.74,1.16,1.37,2.85,2.05,5.07,2.05s3.9-.68,5.04-2.05c1.14-1.37,1.72-3.28,1.72-5.74v-20.84h7.64v20.68c0,3.4-.55,6.23-1.66,8.5-1.11,2.27-2.73,3.98-4.86,5.12-2.13,1.14-4.76,1.71-7.87,1.71Z"/><path class="cls-1" d="m225.25,95.38l-19.38-26.25,3.27-.88v27.13h-7.59v-35.39h6.91l18.97,25.78-2.91.52v-26.3h7.59v35.39h-6.86Z"/><path class="cls-1" d="m245.93,95.38h-7.59v-35.39h7.59v35.39Z"/><path class="cls-1" d="m249.52,67.31v-7.33h28.84v7.33h-28.84Zm10.5,28.06v-31.81h7.64v31.81h-7.64Z"/><path class="cls-1" d="m296.45,78.54h-3.59l9.35-18.55h8.16l-12.58,24.22.52-4.37v15.54h-7.59v-15.54l.52,4.37-12.53-24.22h8.42l9.3,18.55Z"/><path class="cls-1" d="m368.54,96c-9.64,0-17.98-2.05-25.02-6.14-7.05-4.09-12.5-9.75-16.36-16.98-3.87-7.23-5.8-15.52-5.8-24.89,0-7,1.16-13.43,3.48-19.3,2.32-5.86,5.57-10.95,9.75-15.27,4.18-4.32,9.16-7.64,14.93-9.95,5.77-2.32,12.11-3.48,19.02-3.48,10.91,0,19.86,2.36,26.86,7.09,7,4.73,12.36,11.45,16.09,20.18l-18.14,6.95c-3-5.18-6.52-8.98-10.57-11.39-4.05-2.41-8.8-3.61-14.25-3.61s-9.8,1.21-13.84,3.61c-4.05,2.41-7.23,5.75-9.55,10.02-2.32,4.27-3.48,9.32-3.48,15.14s1.16,10.75,3.48,15.07c2.32,4.32,5.5,7.66,9.55,10.02,4.04,2.36,8.66,3.55,13.84,3.55,5.45,0,10.2-1.18,14.25-3.55,4.04-2.36,7.57-6.14,10.57-11.32l18.14,6.95c-3.73,8.73-9.09,15.46-16.09,20.18-7,4.73-15.95,7.09-26.86,7.09Z"/><path class="cls-1" d="m478.04,94.36h-56.45V1.5h19.91v81.14l-5.05-7.5h41.59v19.23Z"/><path class="cls-1" d="m526.44,96c-8.18,0-15.07-1.5-20.66-4.5s-9.84-7.48-12.75-13.43c-2.91-5.95-4.36-13.38-4.36-22.3V1.5h19.91v54.68c0,6.46,1.52,11.48,4.57,15.07,3.04,3.59,7.48,5.39,13.3,5.39s10.23-1.79,13.23-5.39c3-3.59,4.5-8.61,4.5-15.07V1.5h20.05v54.27c0,8.91-1.46,16.34-4.36,22.3-2.91,5.96-7.16,10.43-12.75,13.43-5.59,3-12.48,4.5-20.66,4.5Z"/><path class="cls-1" d="m580.17,94.36V1.5h33.27c7.64,0,13.77.95,18.41,2.86,4.64,1.91,8.02,4.75,10.16,8.52,2.13,3.77,3.2,8.48,3.2,14.11,0,4.46-.98,8.39-2.93,11.8-1.96,3.41-4.62,6.07-7.98,7.98-3.36,1.91-7.18,2.86-11.45,2.86l.41-4.36c5.36,0,9.82,1,13.36,3,3.55,2,6.23,4.73,8.05,8.18,1.82,3.46,2.73,7.36,2.73,11.73,0,8.73-2.66,15.27-7.98,19.64-5.32,4.36-13.16,6.55-23.52,6.55h-35.73Zm19.91-82.64v71.46l-7.09-7.91h22.64c3.55,0,6.34-.86,8.39-2.59,2.05-1.73,3.07-4.09,3.07-7.09,0-3.27-.98-5.73-2.93-7.36-1.96-1.64-4.7-2.45-8.25-2.45h-22.91v-17.18h20.86c3.64,0,6.36-.73,8.18-2.18,1.82-1.45,2.73-3.73,2.73-6.82,0-2.82-.93-5.02-2.8-6.61-1.86-1.59-4.57-2.39-8.11-2.39h-20.32l6.55-8.86Z"/></g></svg>